<?xml version="1.0" encoding="UTF-8"?>
<svg id="b" data-name="Object" xmlns="http://www.w3.org/2000/svg" viewBox="0 0 1539.91 866.27">
  <defs>
    <style>
      .c, .d {
        fill: #e25858;
      }

      .e, .f {
        fill: #5e60ce;
      }

      .g {
        fill: #4ea8de;
      }

      .f {
        font-size: 398.75px;
      }

      .f, .d {
        font-family: Verdana-Black, Verdana;
        font-weight: 800;
      }

      .d {
        font-size: 389.57px;
      }
    </style>
  </defs>
  <text class="d" transform="translate(423.4 622.01)"><tspan x="0" y="0">DONE</tspan></text>
  <g>
    <g>
      <path class="g" d="M306.25,436.39H43.93c-24.22,0-43.93-19.71-43.93-43.93V102.41c0-24.22,19.71-43.93,43.93-43.93H306.25c24.22,0,43.93,19.71,43.93,43.93V392.46c0,24.22-19.71,43.93-43.93,43.93ZM43.93,93.58c-4.78,0-8.82,4.04-8.82,8.82V392.46c0,4.78,4.04,8.82,8.82,8.82H306.25c4.78,0,8.82-4.04,8.82-8.82V102.41c0-4.78-4.04-8.82-8.82-8.82H43.93Z"/>
      <path class="c" d="M425.72,128.03l-15.53-14.06c-11.21-10.15-29.33-9.5-40.25,1.45l-152.67,152.91-62.13-55.65c-12.28-11-32.03-10.2-43.88,1.8l-9.49,9.6c-11.85,11.99-11.5,30.8,.79,41.81l92.02,82.42,5.9,5.34c11.21,10.15,29.33,9.5,40.25-1.45l185.52-185.81c10.93-10.95,10.7-28.2-.51-38.35Z"/>
    </g>
    <path class="e" d="M266.49,545.75l-18.68-274.94c-.73-10.81,10.13-18.64,20.16-14.52l268.83,110.56c10.6,4.36,12.3,18.67,3.01,25.38l-80.17,57.97c-6.51,4.71-8.01,13.78-3.35,20.33l71.53,100.68c4.68,6.58,3.14,15.71-3.44,20.39l-43.15,30.71c-6.8,4.84-16.26,3.02-20.78-4l-70.55-109.51c-4.39-6.82-13.5-8.76-20.29-4.33l-80.51,52.54c-9.36,6.11-21.83-.11-22.59-11.26Z"/>
  </g>
  <text class="f" transform="translate(434.28 341.52)"><tspan x="0" y="0">to</tspan></text>
  <text/>
</svg>