<?xml version="1.0" encoding="UTF-8"?>
<svg id="b" data-name="Object" xmlns="http://www.w3.org/2000/svg" viewBox="0 0 1055.37 1095.34">
  <defs>
    <style>
      .c {
        fill: #e25858;
      }

      .d {
        fill: #5e60ce;
      }

      .e {
        fill: #4ea8de;
      }
    </style>
  </defs>
  <g>
    <path class="e" d="M592.1,730.67H84.93c-46.83,0-84.93-38.11-84.93-84.94V84.94C0,38.1,38.1,0,84.93,0h507.16c46.83,0,84.94,38.1,84.94,84.94V645.73c0,46.83-38.1,84.94-84.94,84.94ZM84.93,67.88c-9.24,0-17.05,7.81-17.05,17.06V645.73c0,9.25,7.81,17.06,17.05,17.06h507.16c9.24,0,17.05-7.81,17.05-17.06V84.94c0-9.24-7.81-17.06-17.05-17.06H84.93Z"/>
    <path class="c" d="M823.09,134.48l-30.03-27.19c-21.68-19.62-56.7-18.36-77.83,2.8L420.05,405.74l-120.12-107.59c-23.75-21.27-61.93-19.71-84.84,3.47l-18.35,18.56c-22.91,23.18-22.23,59.55,1.52,80.83l177.91,159.35,11.4,10.32c21.68,19.62,56.7,18.36,77.83-2.8L824.08,208.63c21.13-21.16,20.68-54.53-.99-74.15Z"/>
  </g>
  <path class="d" d="M515.23,942.1l-36.12-531.57c-1.42-20.91,19.59-36.04,38.97-28.07l519.76,213.75c20.5,8.43,23.77,36.09,5.81,49.07l-155,112.07c-12.58,9.1-15.48,26.64-6.48,39.3l138.3,194.66c9.04,12.73,6.06,30.37-6.66,39.42l-83.43,59.37c-13.14,9.35-31.44,5.84-40.17-7.73l-136.41-211.73c-8.49-13.18-26.1-16.94-39.23-8.37l-155.67,101.59c-18.09,11.81-42.21-.21-43.67-21.77Z"/>
</svg>